<?xml version="1.0" encoding="UTF-8"?><svg xmlns="http://www.w3.org/2000/svg" xmlns:xlink="http://www.w3.org/1999/xlink" fill-opacity="1" color-rendering="auto" color-interpolation="auto" text-rendering="auto" stroke="black" stroke-linecap="square" width="992" stroke-miterlimit="10" shape-rendering="auto" stroke-opacity="1" fill="black" stroke-dasharray="none" font-weight="normal" stroke-width="1" height="442" font-family="'Dialog'" font-style="normal" stroke-linejoin="miter" font-size="12px" stroke-dashoffset="0" image-rendering="auto">
  <!--Generated by ySVG 2.5-->
  <defs id="genericDefs"/>
  <g>
    <defs id="defs1">
      <clipPath clipPathUnits="userSpaceOnUse" id="clipPath1">
        <path d="M0 0 L992 0 L992 442 L0 442 L0 0 Z"/>
      </clipPath>
      <clipPath clipPathUnits="userSpaceOnUse" id="clipPath2">
        <path d="M240 45 L1232 45 L1232 487 L240 487 L240 45 Z"/>
      </clipPath>
    </defs>
    <g fill="white" text-rendering="geometricPrecision" shape-rendering="geometricPrecision" transform="translate(-240,-45)" stroke="white">
      <rect x="240" width="992" height="442" y="45" clip-path="url(#clipPath2)" stroke="none"/>
    </g>
    <g fill="rgb(245,245,245)" text-rendering="geometricPrecision" shape-rendering="geometricPrecision" transform="matrix(1,0,0,1,-240,-45)" stroke="rgb(245,245,245)">
      <rect x="255" y="169.0781" clip-path="url(#clipPath2)" width="150" rx="4" ry="4" height="141.4609" stroke="none"/>
      <rect x="255" y="169.0781" clip-path="url(#clipPath2)" fill="rgb(235,235,235)" width="150" height="21.4609" stroke="none"/>
    </g>
    <g font-size="15px" stroke-linecap="butt" transform="matrix(1,0,0,1,-240,-45)" text-rendering="geometricPrecision" font-family="sans-serif" shape-rendering="geometricPrecision" stroke-miterlimit="1.45">
      <text x="380.9688" xml:space="preserve" y="185.0015" clip-path="url(#clipPath2)" stroke="none">list</text>
      <rect x="255" y="169.0781" clip-path="url(#clipPath2)" fill="none" width="150" stroke-dasharray="6,2" rx="4" ry="4" height="141.4609"/>
    </g>
    <g fill="rgb(255,204,0)" text-rendering="geometricPrecision" shape-rendering="geometricPrecision" transform="matrix(1,0,0,1,-240,-45)" stroke="rgb(255,204,0)">
      <rect x="270" width="120" height="30" y="205.5391" clip-path="url(#clipPath2)" stroke="none"/>
    </g>
    <g text-rendering="geometricPrecision" stroke-miterlimit="1.45" shape-rendering="geometricPrecision" transform="matrix(1,0,0,1,-240,-45)" stroke-linecap="butt">
      <rect fill="none" x="270" width="120" height="30" y="205.5391" clip-path="url(#clipPath2)"/>
      <text x="311.7627" xml:space="preserve" y="224.6934" clip-path="url(#clipPath2)" font-family="sans-serif" stroke="none">item[]</text>
    </g>
    <g fill="rgb(255,204,0)" text-rendering="geometricPrecision" shape-rendering="geometricPrecision" transform="matrix(1,0,0,1,-240,-45)" stroke="rgb(255,204,0)">
      <rect x="270" width="120" height="30" y="265.5391" clip-path="url(#clipPath2)" stroke="none"/>
    </g>
    <g text-rendering="geometricPrecision" stroke-miterlimit="1.45" shape-rendering="geometricPrecision" transform="matrix(1,0,0,1,-240,-45)" stroke-linecap="butt">
      <rect fill="none" x="270" width="120" height="30" y="265.5391" clip-path="url(#clipPath2)"/>
      <text x="318.7061" xml:space="preserve" y="284.6934" clip-path="url(#clipPath2)" font-family="sans-serif" stroke="none">add</text>
    </g>
    <g fill="rgb(255,204,0)" text-rendering="geometricPrecision" shape-rendering="geometricPrecision" transform="matrix(1,0,0,1,-240,-45)" stroke="rgb(255,204,0)">
      <rect x="461" width="107" height="30" y="265.5391" clip-path="url(#clipPath2)" stroke="none"/>
    </g>
    <g text-rendering="geometricPrecision" stroke-miterlimit="1.45" shape-rendering="geometricPrecision" transform="matrix(1,0,0,1,-240,-45)" stroke-linecap="butt">
      <rect fill="none" x="461" width="107" height="30" y="265.5391" clip-path="url(#clipPath2)"/>
      <text x="478.5029" xml:space="preserve" y="284.6934" clip-path="url(#clipPath2)" font-family="sans-serif" stroke="none">get defaults</text>
      <path fill="none" d="M390 280.5391 L453 280.5391" clip-path="url(#clipPath2)"/>
      <path d="M461 280.5391 L449 275.5391 L452 280.5391 L449 285.5391 Z" clip-path="url(#clipPath2)" stroke="none"/>
    </g>
    <g fill="rgb(245,245,245)" text-rendering="geometricPrecision" shape-rendering="geometricPrecision" transform="matrix(1,0,0,1,-240,-45)" stroke="rgb(245,245,245)">
      <rect x="665" y="100.1914" clip-path="url(#clipPath2)" width="150" rx="4" ry="4" height="240.6953" stroke="none"/>
      <rect x="665" y="100.1914" clip-path="url(#clipPath2)" fill="rgb(235,235,235)" width="150" height="21.4609" stroke="none"/>
    </g>
    <g font-size="15px" stroke-linecap="butt" transform="matrix(1,0,0,1,-240,-45)" text-rendering="geometricPrecision" font-family="sans-serif" shape-rendering="geometricPrecision" stroke-miterlimit="1.45">
      <text x="784.2012" xml:space="preserve" y="116.1147" clip-path="url(#clipPath2)" stroke="none">edit</text>
      <rect x="665" y="100.1914" clip-path="url(#clipPath2)" fill="none" width="150" stroke-dasharray="6,2" rx="4" ry="4" height="240.6953"/>
    </g>
    <g fill="rgb(255,204,0)" text-rendering="geometricPrecision" shape-rendering="geometricPrecision" transform="matrix(1,0,0,1,-240,-45)" stroke="rgb(255,204,0)">
      <rect x="680" width="120" height="30" y="136.6523" clip-path="url(#clipPath2)" stroke="none"/>
    </g>
    <g text-rendering="geometricPrecision" stroke-miterlimit="1.45" shape-rendering="geometricPrecision" transform="matrix(1,0,0,1,-240,-45)" stroke-linecap="butt">
      <rect fill="none" x="680" width="120" height="30" y="136.6523" clip-path="url(#clipPath2)"/>
      <text x="722.3721" xml:space="preserve" y="155.8066" clip-path="url(#clipPath2)" font-family="sans-serif" stroke="none">field[]</text>
    </g>
    <g fill="rgb(255,204,0)" text-rendering="geometricPrecision" shape-rendering="geometricPrecision" transform="matrix(1,0,0,1,-240,-45)" stroke="rgb(255,204,0)">
      <rect x="680" width="120" height="30" y="196.6523" clip-path="url(#clipPath2)" stroke="none"/>
    </g>
    <g text-rendering="geometricPrecision" stroke-miterlimit="1.45" shape-rendering="geometricPrecision" transform="matrix(1,0,0,1,-240,-45)" stroke-linecap="butt">
      <rect fill="none" x="680" width="120" height="30" y="196.6523" clip-path="url(#clipPath2)"/>
      <text x="725.9551" xml:space="preserve" y="215.8066" clip-path="url(#clipPath2)" font-family="sans-serif" stroke="none">save</text>
    </g>
    <g fill="rgb(255,204,0)" text-rendering="geometricPrecision" shape-rendering="geometricPrecision" transform="matrix(1,0,0,1,-240,-45)" stroke="rgb(255,204,0)">
      <rect x="680" width="120" height="30" y="246.2695" clip-path="url(#clipPath2)" stroke="none"/>
    </g>
    <g text-rendering="geometricPrecision" stroke-miterlimit="1.45" shape-rendering="geometricPrecision" transform="matrix(1,0,0,1,-240,-45)" stroke-linecap="butt">
      <rect fill="none" x="680" width="120" height="30" y="246.2695" clip-path="url(#clipPath2)"/>
      <text x="721.0977" xml:space="preserve" y="265.4238" clip-path="url(#clipPath2)" font-family="sans-serif" stroke="none">delete</text>
    </g>
    <g fill="rgb(255,204,0)" text-rendering="geometricPrecision" shape-rendering="geometricPrecision" transform="matrix(1,0,0,1,-240,-45)" stroke="rgb(255,204,0)">
      <rect x="680" width="120" height="30" y="295.8867" clip-path="url(#clipPath2)" stroke="none"/>
    </g>
    <g text-rendering="geometricPrecision" stroke-miterlimit="1.45" shape-rendering="geometricPrecision" transform="matrix(1,0,0,1,-240,-45)" stroke-linecap="butt">
      <rect fill="none" x="680" width="120" height="30" y="295.8867" clip-path="url(#clipPath2)"/>
      <text x="720.5645" xml:space="preserve" y="315.041" clip-path="url(#clipPath2)" font-family="sans-serif" stroke="none">cancel</text>
    </g>
    <g fill="rgb(255,204,0)" text-rendering="geometricPrecision" shape-rendering="geometricPrecision" transform="matrix(1,0,0,1,-240,-45)" stroke="rgb(255,204,0)">
      <path d="M927 295.5391 L978 249.5391 L1029 295.5391 L978 341.5391 Z" fill-rule="evenodd" clip-path="url(#clipPath2)" stroke="none"/>
    </g>
    <g text-rendering="geometricPrecision" stroke-miterlimit="1.45" shape-rendering="geometricPrecision" transform="matrix(1,0,0,1,-240,-45)" stroke-linecap="butt">
      <path fill="none" d="M927 295.5391 L978 249.5391 L1029 295.5391 L978 341.5391 Z" fill-rule="evenodd" clip-path="url(#clipPath2)"/>
      <text x="931.043" xml:space="preserve" y="299.6934" clip-path="url(#clipPath2)" font-family="sans-serif" stroke="none">exists &amp;&amp; sure?</text>
    </g>
    <g fill="rgb(255,204,0)" text-rendering="geometricPrecision" shape-rendering="geometricPrecision" transform="matrix(1,0,0,1,-240,-45)" stroke="rgb(255,204,0)">
      <rect x="1109.5" width="107" height="30" y="280.5391" clip-path="url(#clipPath2)" stroke="none"/>
    </g>
    <g text-rendering="geometricPrecision" stroke-miterlimit="1.45" shape-rendering="geometricPrecision" transform="matrix(1,0,0,1,-240,-45)" stroke-linecap="butt">
      <rect fill="none" x="1109.5" width="107" height="30" y="280.5391" clip-path="url(#clipPath2)"/>
      <text x="1144.0977" xml:space="preserve" y="299.6934" clip-path="url(#clipPath2)" font-family="sans-serif" stroke="none">delete</text>
    </g>
    <g fill="rgb(255,204,0)" text-rendering="geometricPrecision" shape-rendering="geometricPrecision" transform="matrix(1,0,0,1,-240,-45)" stroke="rgb(255,204,0)">
      <path d="M927 180.4609 L978 134.4609 L1029 180.4609 L978 226.4609 Z" fill-rule="evenodd" clip-path="url(#clipPath2)" stroke="none"/>
    </g>
    <g text-rendering="geometricPrecision" stroke-miterlimit="1.45" shape-rendering="geometricPrecision" transform="matrix(1,0,0,1,-240,-45)" stroke-linecap="butt">
      <path fill="none" d="M927 180.4609 L978 134.4609 L1029 180.4609 L978 226.4609 Z" fill-rule="evenodd" clip-path="url(#clipPath2)"/>
      <text x="960.4453" xml:space="preserve" y="184.6152" clip-path="url(#clipPath2)" font-family="sans-serif" stroke="none">valid?</text>
    </g>
    <g fill="rgb(255,204,0)" text-rendering="geometricPrecision" shape-rendering="geometricPrecision" transform="matrix(1,0,0,1,-240,-45)" stroke="rgb(255,204,0)">
      <rect x="1109.5" width="107" height="30" y="165.4609" clip-path="url(#clipPath2)" stroke="none"/>
    </g>
    <g text-rendering="geometricPrecision" stroke-miterlimit="1.45" shape-rendering="geometricPrecision" transform="matrix(1,0,0,1,-240,-45)" stroke-linecap="butt">
      <rect fill="none" x="1109.5" width="107" height="30" y="165.4609" clip-path="url(#clipPath2)"/>
      <text x="1112.7295" xml:space="preserve" y="184.6152" clip-path="url(#clipPath2)" font-family="sans-serif" stroke="none">create or update</text>
      <path fill="none" d="M568 266.304 L657.2289 242.5624" clip-path="url(#clipPath2)"/>
      <path d="M664.96 240.5054 L652.0778 238.759 L656.2626 242.8195 L654.6491 248.4228 Z" clip-path="url(#clipPath2)" stroke="none"/>
      <path fill="none" d="M390 220.5391 L657.0183 220.5391" clip-path="url(#clipPath2)"/>
      <path d="M665.0183 220.5391 L653.0183 215.5391 L656.0183 220.5391 L653.0183 225.5391 Z" clip-path="url(#clipPath2)" stroke="none"/>
      <path fill="none" d="M740 325.8867 L740 378.685 L739.2793 385.4022 L737.1172 391.686 L733.5137 397.5365 L728.4688 402.9536 L721.9824 407.9374 L714.0547 412.4878 L704.6855 416.6048 L693.875 420.2884 L681.623 423.5387 L667.9297 426.3556 L652.7949 428.7391 L636.2188 430.6893 L618.2012 432.2061 L598.7422 433.2895 L555.5 434.1562 L514.5 434.1562 L492.1582 433.8146 L471.2578 432.7897 L451.7988 431.0816 L433.7812 428.6902 L417.2051 425.6156 L402.0703 421.8577 L388.377 417.4165 L376.125 412.2921 L365.3145 406.4845 L355.9453 399.9936 L348.0176 392.8194 L341.5312 384.962 L336.4863 376.4214 L332.8828 367.1974 L330.7207 357.2903 L330 346.6998 L330 318.5562" clip-path="url(#clipPath2)"/>
      <path d="M330 310.5562 L325 322.5562 L330 319.5562 L335 322.5562 Z" clip-path="url(#clipPath2)" stroke="none"/>
      <path fill="none" d="M800 269.9089 L926.0597 288.0602" clip-path="url(#clipPath2)"/>
      <path d="M933.978 289.2003 L922.8131 282.5412 L925.0699 287.9177 L921.3879 292.4391 Z" clip-path="url(#clipPath2)" stroke="none"/>
      <path fill="none" d="M978 341.5415 L978 382.6926 L977.7152 387.0797 L976.861 391.3275 L975.4371 395.436 L973.4437 399.4052 L970.8809 403.2352 L967.7484 406.926 L959.775 413.8896 L949.5234 420.2961 L936.9938 426.1455 L922.1859 431.4379 L905.1 436.1732 L885.736 440.3513 L864.0938 443.9724 L840.1735 447.0364 L813.975 449.5433 L785.4985 451.4931 L754.7438 452.8858 L721.7109 453.7215 L686.4 454 L621.6 454 L586.2891 453.6235 L553.2562 452.494 L522.5015 450.6114 L494.025 447.9759 L467.8265 444.5873 L443.9062 440.4457 L422.2641 435.5511 L402.9 429.9035 L385.8141 423.5028 L371.0063 416.3492 L358.4766 408.4425 L353.066 404.2068 L348.225 399.7828 L343.9535 395.1706 L340.2516 390.3701 L337.1191 385.3814 L334.5562 380.2044 L332.5629 374.8391 L331.1391 369.2856 L330.2848 363.5439 L330 357.6139 L330 318.532" clip-path="url(#clipPath2)"/>
      <path d="M330 310.532 L325 322.532 L330 319.532 L335 322.532 Z" clip-path="url(#clipPath2)" stroke="none"/>
      <text x="982" xml:space="preserve" y="364.8027" clip-path="url(#clipPath2)" font-family="sans-serif" stroke="none">no</text>
      <path fill="none" d="M1028.9924 295.5391 L1101.5 295.5391" clip-path="url(#clipPath2)"/>
      <path d="M1109.5 295.5391 L1097.5 290.5391 L1100.5 295.5391 L1097.5 300.5391 Z" clip-path="url(#clipPath2)" stroke="none"/>
      <text x="1041.125" xml:space="preserve" y="310.6777" clip-path="url(#clipPath2)" font-family="sans-serif" stroke="none">yes</text>
      <path fill="none" d="M1163 310.5391 L1163 392.5926 L1162.6339 397.478 L1161.5358 402.2083 L1159.7054 406.7836 L1157.1429 411.2037 L1153.8484 415.4688 L1149.8217 419.5787 L1145.0629 423.5336 L1139.5719 427.3333 L1126.3936 434.4676 L1110.2867 440.9815 L1091.2513 446.875 L1069.2875 452.1481 L1044.3951 456.8009 L1016.5742 460.8333 L985.8248 464.2454 L952.1469 467.037 L915.5405 469.2083 L876.0055 470.7592 L833.542 471.6898 L788.15 472 L704.85 472 L659.458 471.5919 L616.9945 470.3674 L577.4595 468.3267 L540.8531 465.4696 L507.1752 461.7963 L476.4258 457.3066 L448.6049 452.0007 L423.7125 445.8785 L401.7486 438.9399 L382.7133 431.1851 L374.2938 427.0016 L366.6064 422.614 L359.6512 418.0223 L353.4281 413.2265 L347.9372 408.2267 L343.1783 403.0228 L339.1516 397.6148 L335.857 392.0028 L333.2946 386.1867 L331.4643 380.1665 L330.3661 373.9422 L330 367.5139 L330 318.5516" clip-path="url(#clipPath2)"/>
      <path d="M330 310.5516 L325 322.5516 L330 319.5516 L335 322.5516 Z" clip-path="url(#clipPath2)" stroke="none"/>
      <path fill="none" d="M800 203.789 L925.5244 187.3382" clip-path="url(#clipPath2)"/>
      <path d="M933.4565 186.2986 L920.9086 182.9004 L924.5328 187.4681 L922.208 192.8156 Z" clip-path="url(#clipPath2)" stroke="none"/>
      <path fill="none" d="M953.9058 156.1719 L946.65 148.8574 L943.2258 145.8977 L939.3657 143.4829 L935.0695 141.613 L930.3375 140.2881 L925.1696 139.5081 L919.5656 139.2729 L913.5258 139.5828 L907.05 140.4375 L892.7906 143.7817 L876.7875 149.3057 L859.0406 157.0093 L839.55 166.8926 L822.021 176.3388" clip-path="url(#clipPath2)"/>
      <path d="M814.9785 180.134 L827.9142 178.8428 L822.9013 175.8644 L823.1703 170.0397 Z" clip-path="url(#clipPath2)" stroke="none"/>
      <text x="935.0709" xml:space="preserve" y="128.3223" clip-path="url(#clipPath2)" font-family="sans-serif" stroke="none">no</text>
      <path fill="none" d="M1028.9924 180.4609 L1101.5 180.4609" clip-path="url(#clipPath2)"/>
      <path d="M1109.5 180.4609 L1097.5 175.4609 L1100.5 180.4609 L1097.5 185.4609 Z" clip-path="url(#clipPath2)" stroke="none"/>
      <text x="1041.125" xml:space="preserve" y="195.5996" clip-path="url(#clipPath2)" font-family="sans-serif" stroke="none">yes</text>
      <path fill="none" d="M1163 165.4609 L1163 114.2074 L1162.6379 110.8724 L1161.5515 107.6432 L1159.741 104.52 L1157.2063 101.5026 L1153.9473 98.591 L1149.9641 95.7854 L1139.825 90.4917 L1126.7891 85.6215 L1110.8562 81.1748 L1092.0266 77.1516 L1070.3 73.5519 L1045.6765 70.3756 L1018.1562 67.6229 L987.7391 65.2937 L954.425 63.388 L918.2141 61.9057 L879.1063 60.847 L792.2 60 L709.8 60 L664.8826 60.3161 L622.8304 61.2643 L583.6436 62.8446 L547.3219 65.0571 L513.8654 67.9017 L483.2742 71.3785 L455.5482 75.4874 L430.6875 80.2285 L408.692 85.6017 L389.5617 91.607 L373.2967 98.2444 L359.8969 105.514 L354.2715 109.3859 L349.3623 113.4158 L345.1695 117.6037 L341.693 121.9497 L338.9328 126.4537 L336.8889 131.1157 L335.5613 135.9358 L334.95 140.9139 L333.9408 161.076" clip-path="url(#clipPath2)"/>
      <path d="M333.5409 169.066 L339.1346 157.331 L333.9908 160.0773 L329.147 156.8311 Z" clip-path="url(#clipPath2)" stroke="none"/>
    </g>
  </g>
</svg>
